<?xml version="1.0" standalone="no"?>
<!DOCTYPE svg PUBLIC "-//W3C//DTD SVG 20010904//EN"
 "http://www.w3.org/TR/2001/REC-SVG-20010904/DTD/svg10.dtd">
<svg version="1.0" xmlns="http://www.w3.org/2000/svg"
 width="460.000000pt" height="460.000000pt" viewBox="0 0 460.000000 460.000000"
 preserveAspectRatio="xMidYMid meet">

<g transform="translate(0.000000,460.000000) scale(0.100000,-0.100000)"
fill="#000000" stroke="none">
<path d="M2135 4044 c-16 -2 -70 -9 -120 -15 -245 -30 -541 -136 -758 -270
-43 -27 -80 -49 -83 -49 -2 0 -14 -9 -26 -19 -13 -11 -54 -45 -93 -76 -147
-119 -288 -277 -382 -426 -196 -312 -295 -693 -264 -1015 51 -524 323 -983
761 -1285 79 -54 291 -175 302 -172 5 2 8 -2 8 -8 0 -5 4 -8 8 -5 5 3 23 -4
40 -14 18 -11 42 -22 54 -24 13 -2 59 -16 103 -30 44 -14 117 -34 162 -45 45
-11 86 -22 91 -25 17 -10 200 -21 357 -21 153 0 367 23 423 46 13 5 38 9 57 9
19 0 35 3 35 8 0 4 48 23 107 42 112 36 312 136 430 214 266 176 486 423 627
703 73 146 148 391 161 523 2 25 8 72 11 105 10 86 9 137 -4 250 -34 281 -124
530 -278 768 -24 37 -44 71 -44 75 0 9 -75 91 -183 199 -124 124 -149 147
-181 163 -16 8 -35 25 -44 37 -8 13 -21 23 -29 23 -14 0 -63 28 -73 42 -11 15
-223 120 -318 158 -214 85 -480 137 -697 137 -71 1 -143 -1 -160 -3z m431 -55
c3 -6 19 -9 35 -5 18 3 29 1 29 -5 0 -6 9 -9 20 -6 11 3 20 1 20 -5 0 -6 11
-7 25 -4 16 4 25 2 25 -5 0 -6 9 -9 20 -6 11 3 20 2 20 -2 0 -5 -9 -16 -20
-26 -11 -10 -20 -27 -20 -38 0 -17 -5 -19 -32 -13 -18 4 -34 11 -36 16 -2 6
-12 10 -23 10 -10 0 -19 5 -19 10 0 6 -11 8 -25 4 -15 -4 -25 -2 -25 5 0 6 -7
11 -15 11 -8 0 -15 9 -15 19 0 10 -7 22 -16 25 -8 3 -12 10 -9 16 8 13 52 13
61 -1z m-355 -65 c16 -8 38 -13 47 -10 45 14 69 14 69 0 0 -7 -10 -17 -21 -20
-12 -4 -29 -15 -38 -25 -19 -19 -24 -59 -9 -59 5 0 11 -10 13 -22 2 -18 11
-24 37 -26 l34 -3 -6 38 c-7 40 -3 49 26 72 16 13 17 10 15 -35 -2 -26 -10
-55 -18 -65 -25 -27 -47 -55 -58 -74 -9 -17 -10 -17 -17 4 -7 23 -62 51 -101
51 -13 0 -24 5 -24 10 0 14 -27 12 -33 -2 -4 -10 -7 -10 -18 0 -21 19 -36 14
-44 -15 -3 -15 -29 -49 -56 -77 -42 -42 -49 -54 -49 -88 0 -38 1 -39 33 -37
60 4 67 1 67 -28 0 -21 -3 -24 -9 -14 -12 19 -31 4 -57 -46 -25 -50 -71 -93
-98 -93 -25 0 -46 -17 -46 -37 0 -16 44 -63 59 -63 5 0 7 -9 4 -20 -4 -15 -11
-19 -25 -14 -10 3 -25 0 -33 -6 -8 -6 -18 -9 -24 -6 -5 3 -23 3 -39 0 -32 -6
-50 -42 -35 -67 4 -7 6 -20 4 -31 -2 -15 2 -18 28 -14 17 2 31 1 31 -4 0 -4
-4 -8 -9 -8 -5 0 -11 -14 -15 -30 -4 -21 -14 -34 -33 -41 -34 -13 -43 -26 -43
-61 0 -16 -4 -28 -9 -28 -5 0 -11 -9 -14 -20 -3 -11 -13 -23 -24 -26 -58 -21
-104 -147 -74 -203 6 -11 7 -42 1 -81 -9 -62 -8 -63 21 -89 16 -14 29 -30 29
-36 1 -18 35 -52 61 -60 13 -4 32 -15 42 -23 10 -9 28 -17 40 -18 12 -1 30 -5
40 -9 10 -4 30 -2 45 4 18 9 28 9 30 2 6 -18 31 -13 44 9 15 24 24 25 45 4 9
-8 24 -14 33 -11 9 2 25 -2 35 -9 18 -13 18 -15 -8 -42 -30 -31 -35 -52 -12
-52 8 0 15 -4 15 -10 0 -5 7 -10 15 -10 18 0 19 -4 3 -31 -11 -17 -10 -23 0
-26 46 -17 64 -97 37 -167 -19 -48 -16 -127 4 -134 6 -2 11 -19 11 -38 0 -19
5 -34 11 -34 13 0 39 -62 39 -95 0 -14 4 -25 9 -25 5 0 12 -35 16 -77 7 -83
20 -123 42 -123 7 0 13 4 13 8 0 5 11 14 25 20 15 7 25 8 25 2 0 -14 44 -12
58 2 6 6 20 13 29 14 10 2 19 8 21 14 2 6 11 16 19 23 48 39 71 65 76 87 3 14
15 35 27 47 11 12 20 34 20 49 0 19 16 42 60 84 44 42 60 65 60 84 0 18 -4 25
-12 20 -8 -5 -10 7 -5 44 4 32 2 52 -5 54 -16 6 -17 76 -1 89 16 14 17 32 1
24 -7 -4 -5 0 5 8 9 8 17 19 17 25 0 6 15 19 33 31 44 27 71 59 86 105 7 21
20 46 30 56 57 62 74 113 44 135 -23 17 -74 16 -92 -3 -10 -10 -16 -11 -19 -3
-2 6 -8 11 -14 11 -19 0 -58 51 -58 76 0 13 -4 24 -10 24 -17 0 -47 35 -66 79
-10 22 -26 43 -36 47 -10 3 -18 10 -18 16 0 6 -6 19 -14 27 -17 20 -31 81 -18
81 5 0 15 -11 22 -25 7 -14 17 -25 22 -25 4 0 8 -16 8 -35 0 -32 2 -35 31 -35
18 0 28 -4 24 -10 -13 -22 7 -71 33 -83 33 -14 42 -26 42 -55 0 -56 73 -68
117 -19 35 39 57 52 81 49 15 -2 22 2 22 12 0 9 4 16 10 16 5 0 18 17 29 38
11 21 27 44 35 51 22 19 20 36 -6 50 -23 12 -23 12 2 7 35 -7 70 4 71 23 0 13
2 14 6 1 4 -8 14 -21 25 -28 10 -7 18 -19 18 -26 0 -8 13 -16 29 -19 31 -7 45
-31 43 -79 0 -17 5 -28 13 -28 15 0 25 -22 25 -53 0 -12 11 -35 25 -51 14 -16
25 -37 25 -46 0 -27 29 -45 71 -44 37 1 38 0 32 -27 -4 -22 -2 -29 10 -29 8 0
18 -6 21 -12 3 -9 9 -7 20 6 22 27 20 48 -6 75 -18 20 -21 35 -20 100 0 45 5
77 11 79 6 2 11 16 11 32 0 44 10 60 36 60 13 0 24 5 24 10 0 6 10 10 23 10
18 0 25 -9 36 -47 8 -27 17 -50 20 -53 3 -3 11 -14 17 -25 8 -13 21 -19 38
-18 21 1 26 -3 26 -22 0 -12 7 -25 15 -29 8 -3 15 -14 15 -24 0 -11 7 -39 16
-63 9 -24 17 -48 18 -54 2 -5 6 -18 11 -28 4 -10 5 -21 1 -24 -3 -4 -6 -1 -6
5 0 7 -9 12 -20 12 -30 0 -38 -47 -11 -66 11 -8 21 -22 21 -30 0 -8 5 -14 10
-14 6 0 10 -7 10 -15 0 -8 4 -15 8 -15 5 0 19 -26 32 -59 40 -101 70 -125 180
-147 47 -10 90 -22 96 -29 15 -14 23 -84 11 -88 -5 -1 -10 -18 -11 -37 -1 -28
-12 -46 -53 -88 -35 -35 -56 -50 -67 -46 -10 4 -24 -2 -35 -15 -10 -11 -25
-21 -32 -21 -36 -1 -79 -78 -79 -143 0 -36 -28 -97 -44 -97 -12 0 -46 -60 -46
-80 0 -4 29 -7 65 -5 63 3 65 2 59 -19 -3 -11 -12 -26 -20 -32 -8 -6 -14 -16
-14 -21 0 -6 -11 -19 -25 -29 -14 -10 -25 -24 -25 -31 0 -7 -4 -13 -10 -13 -5
0 -10 -5 -10 -12 0 -6 -18 -29 -40 -49 -22 -21 -40 -41 -40 -46 0 -4 -10 -13
-22 -18 -13 -6 -29 -22 -36 -37 -7 -16 -20 -28 -28 -28 -7 0 -14 -5 -14 -10 0
-6 -7 -13 -16 -17 -9 -3 -34 -23 -56 -45 -21 -21 -45 -38 -52 -38 -8 0 -16 -7
-20 -15 -3 -8 -11 -15 -18 -15 -7 0 -19 -9 -25 -20 -7 -10 -31 -24 -53 -30
-23 -6 -44 -18 -47 -26 -3 -7 -11 -14 -19 -14 -8 0 -23 -9 -34 -20 -11 -11
-29 -20 -39 -20 -11 0 -26 -6 -33 -12 -7 -7 -31 -19 -53 -27 -22 -8 -43 -19
-47 -25 -5 -6 -8 -2 -8 12 0 26 -12 28 -34 7 -17 -17 -26 -19 -26 -6 0 6 -11
22 -25 37 -14 15 -25 33 -25 40 0 8 -9 14 -20 14 -11 0 -20 -4 -20 -10 0 -5
-7 -10 -15 -10 -8 0 -15 -3 -15 -8 0 -4 -20 -7 -45 -7 -41 0 -44 2 -38 23 5
22 3 23 -31 17 -29 -6 -36 -4 -36 9 0 19 -21 21 -37 5 -9 -9 -10 -6 -6 11 5
20 3 22 -15 18 -15 -4 -22 -2 -22 8 0 8 -7 14 -15 14 -8 0 -15 -7 -15 -15 0
-8 -3 -15 -8 -15 -4 0 -12 -10 -17 -22 -13 -31 -45 -36 -45 -9 0 12 -4 21 -9
21 -5 0 -7 9 -4 20 6 21 -20 29 -32 10 -3 -6 -17 -7 -31 -4 -13 3 -24 2 -24
-2 0 -5 -23 -9 -50 -10 -38 -1 -56 -6 -71 -22 -14 -16 -25 -19 -42 -14 -30 10
-48 8 -74 -6 -26 -14 -63 -16 -63 -2 0 13 -91 1 -110 -15 -8 -7 -51 -15 -95
-17 -62 -4 -81 -9 -90 -23 -13 -23 -35 -46 -63 -64 -12 -8 -23 -20 -24 -26 -2
-7 -26 -4 -73 11 -42 14 -60 23 -44 23 38 1 63 23 55 49 -4 12 -16 22 -26 22
-31 0 -89 34 -90 51 0 20 -59 34 -74 19 -13 -13 -56 -13 -56 0 0 18 -60 70
-80 70 -15 0 -20 -7 -20 -29 0 -30 -21 -54 -28 -33 -2 7 -10 12 -19 12 -28 0
-163 99 -163 119 0 5 -10 12 -22 16 -20 6 -16 8 19 14 24 4 46 11 50 15 14 14
-15 41 -47 44 -44 5 -59 26 -60 86 0 39 -5 53 -24 70 -13 11 -26 30 -28 41 -2
11 -9 19 -14 18 -11 -2 -16 47 -8 83 2 12 13 24 24 27 16 4 20 13 20 51 0 25
5 46 10 46 6 0 10 -5 10 -11 0 -6 6 -9 12 -7 13 5 21 33 39 133 10 60 31 95
56 95 7 0 13 6 13 14 0 8 7 16 15 20 9 3 15 18 15 36 0 16 4 30 9 30 5 0 9 35
9 78 0 92 3 113 14 106 12 -8 28 42 28 91 0 57 -46 113 -102 121 -23 4 -38 12
-38 20 0 16 -26 19 -35 4 -3 -5 -10 -10 -14 -10 -9 0 -31 60 -31 83 0 10 -11
22 -25 27 -14 5 -25 17 -25 26 0 26 -30 54 -57 54 -12 0 -23 4 -23 9 0 5 -15
16 -32 24 -18 9 -43 25 -56 37 -13 12 -28 20 -35 17 -19 -7 -57 11 -57 28 0
19 -17 19 -36 0 -21 -20 -74 -20 -74 1 0 11 -8 14 -32 12 -20 -2 -32 -8 -30
-15 1 -7 -2 -13 -8 -13 -5 0 -10 -8 -10 -17 -1 -17 -1 -17 -14 -1 -7 10 -15
16 -17 13 -8 -7 -3 40 5 53 4 7 5 20 2 29 -4 8 -1 22 5 29 6 8 9 19 6 26 -2 7
-1 23 4 35 6 15 14 20 28 16 14 -3 21 0 22 8 0 8 4 4 10 -9 8 -20 14 -23 41
-17 50 11 65 29 48 60 -10 18 -22 25 -42 25 -16 0 -35 6 -42 13 -17 17 -27 47
-16 47 6 0 10 10 10 21 0 32 43 139 56 139 7 0 14 9 17 20 3 13 17 22 36 26
17 4 33 14 36 25 4 11 15 24 26 29 10 6 19 16 19 22 0 21 61 66 106 78 24 7
44 16 44 20 0 5 21 16 48 26 26 9 56 26 67 36 19 18 19 20 2 33 -17 12 -17 14
4 28 12 9 19 22 17 29 -3 7 1 19 8 26 12 11 15 10 20 -2 4 -11 12 -13 30 -6
18 7 24 6 24 -4 0 -8 -4 -16 -9 -18 -6 -1 -7 -22 -4 -45 5 -37 9 -43 30 -43
13 0 22 4 19 9 -4 5 3 7 14 4 20 -5 21 -2 18 62 -2 53 1 69 14 79 14 11 17 28
15 99 -2 83 -1 87 20 87 22 0 85 29 91 43 2 4 10 7 17 7 19 0 45 45 45 80 0
36 17 56 54 66 14 3 26 10 26 15 0 5 5 9 10 9 6 0 10 -11 10 -25 0 -14 -4 -25
-9 -25 -5 0 -12 -11 -15 -25 -4 -14 -12 -25 -19 -25 -7 0 -25 -12 -40 -26 -21
-19 -27 -32 -23 -49 3 -12 1 -37 -5 -55 -16 -46 -2 -56 55 -40 26 7 46 16 46
20 0 4 16 15 35 26 19 10 35 22 35 26 0 5 9 8 20 8 11 0 20 4 20 8 0 15 42 57
53 54 6 -2 32 2 57 9 47 13 79 42 80 71 0 9 7 24 16 32 8 9 22 35 30 59 13 39
18 43 39 39 14 -2 25 -9 25 -14 0 -6 22 -8 58 -4 31 4 63 3 70 -2 8 -6 30 0
60 14 56 28 83 29 123 8z m203 1 c-4 -8 -7 -15 -9 -15 -2 0 -5 7 -9 15 -3 9 0
15 9 15 9 0 12 -6 9 -15z m-1184 -235 c0 -5 -5 -10 -11 -10 -5 0 -7 5 -4 10 3
6 8 10 11 10 2 0 4 -4 4 -10z m-33 -52 c-3 -8 -6 -5 -6 6 -1 11 2 17 5 13 3
-3 4 -12 1 -19z m953 -32 c0 -8 9 -18 20 -21 11 -3 20 -11 20 -16 0 -6 5 -7
10 -4 6 3 10 -1 10 -10 0 -8 -7 -18 -16 -22 -8 -3 -13 -12 -10 -19 3 -8 -3
-18 -13 -23 -16 -9 -17 -7 -13 16 3 16 -1 30 -10 37 -20 15 -29 76 -11 76 7 0
13 -6 13 -14z m1170 -106 c0 -5 -7 -10 -16 -10 -8 0 -12 5 -9 10 3 6 10 10 16
10 5 0 9 -4 9 -10z m-1245 -20 c-3 -5 3 -10 14 -10 12 0 21 6 22 13 0 10 2 10
6 0 2 -7 11 -13 19 -13 8 0 14 -7 14 -15 0 -8 -9 -15 -21 -15 -12 0 -18 -4
-13 -11 4 -7 2 -9 -7 -5 -8 3 -22 9 -31 12 -18 6 -24 34 -11 47 10 10 15 8 8
-3z m551 -211 c-13 -10 -29 -19 -35 -19 -6 0 -11 -6 -11 -13 0 -27 -42 -48
-103 -52 -34 -2 -71 -7 -83 -10 -19 -6 -22 -2 -28 47 -4 29 -13 56 -19 60 -7
4 4 8 24 8 23 0 39 -5 42 -14 4 -9 14 -12 26 -9 16 4 21 1 21 -16 0 -31 42
-48 75 -31 13 7 25 22 27 34 2 16 11 22 36 24 17 2 32 8 32 13 0 6 5 7 10 4 6
-4 1 -15 -14 -26z m-427 -69 c13 0 13 -2 -2 -17 -20 -20 -22 -18 -30 27 -5 30
-4 32 5 13 6 -13 18 -23 27 -23z m1495 12 c-29 -4 -39 2 -30 16 4 7 15 6 31
-1 l25 -12 -26 -3z m-1662 1 c0 -10 0 -26 0 -36 -3 -26 16 -57 33 -57 11 0 15
13 15 49 0 42 3 50 19 48 10 0 18 -6 17 -12 -1 -5 4 -11 9 -13 14 -3 24 -47
18 -72 -3 -11 -10 -17 -15 -13 -6 3 -9 0 -6 -8 2 -8 17 -15 31 -17 27 -3 33 7
28 46 -3 19 29 14 36 -5 15 -42 53 -32 53 14 0 27 16 36 54 31 l26 -3 -22 -32
c-13 -18 -31 -33 -41 -33 -13 0 -17 -6 -15 -22 4 -27 38 -38 38 -12 0 13 6 15
30 11 16 -4 51 0 77 8 26 8 54 15 61 15 15 0 16 -34 0 -77 -15 -41 -38 -48
-121 -38 -87 10 -109 10 -134 1 -18 -5 -23 -4 -23 8 0 18 -13 20 -40 6 -13 -7
-21 -7 -25 0 -3 5 -15 10 -26 10 -11 0 -17 5 -14 10 3 6 1 10 -4 10 -6 0 -11
7 -11 15 0 9 -9 25 -19 36 -16 18 -26 19 -67 13 -27 -4 -54 -13 -62 -20 -7 -8
-20 -14 -28 -14 -12 0 -11 5 3 28 10 15 26 36 35 46 10 11 18 24 18 30 0 12
50 66 62 66 4 0 9 -8 10 -17z m658 1 c0 -8 -4 -12 -10 -9 -5 3 -10 10 -10 16
0 5 5 9 10 9 6 0 10 -7 10 -16z m1090 -24 c21 -19 26 -28 14 -24 -22 8 -69 54
-55 54 5 0 23 -14 41 -30z m-1063 -62 c-3 -8 -6 -5 -6 6 -1 11 2 17 5 13 3 -3
4 -12 1 -19z m1149 12 c7 0 17 -12 20 -27 4 -15 16 -36 26 -47 10 -11 18 -27
18 -36 0 -9 12 -40 26 -69 26 -52 26 -82 0 -46 -8 11 -19 16 -30 12 -14 -6
-16 -3 -11 13 7 23 -21 116 -38 127 -7 5 -18 20 -24 36 -7 15 -17 27 -23 27
-5 0 -10 5 -10 11 0 6 7 8 16 5 9 -3 22 -6 30 -6z m-1060 -238 c-10 -2 -22 0
-28 6 -6 6 0 7 19 4 21 -5 23 -7 9 -10z m1139 -72 c8 0 17 5 20 10 11 17 37
11 42 -10 3 -11 8 -20 12 -20 13 0 6 -56 -9 -68 -13 -11 -13 -13 0 -9 18 4 40
-16 40 -37 0 -8 5 -18 10 -21 6 -3 7 -17 4 -31 -3 -13 -2 -24 3 -24 5 0 10
-22 10 -49 0 -27 5 -55 9 -63 5 -7 10 -33 10 -58 1 -25 5 -80 9 -123 7 -71 7
-77 -10 -71 -10 4 -20 1 -25 -7 -20 -31 -19 2 1 46 17 38 19 53 10 67 -6 10
-11 24 -11 32 0 8 -11 17 -25 20 -14 4 -25 11 -25 16 0 6 -6 10 -13 10 -19 0
-70 -59 -64 -75 3 -7 -5 -17 -19 -24 -13 -6 -24 -17 -24 -25 0 -7 -3 -27 -6
-42 -5 -24 1 -35 30 -64 55 -55 61 -58 110 -65 29 -5 46 -12 46 -21 0 -8 5
-14 11 -14 5 0 7 -4 4 -10 -9 -15 -62 -12 -79 5 -8 8 -19 15 -25 15 -6 0 -11
5 -11 11 0 7 -14 10 -35 7 -19 -2 -35 0 -35 5 0 12 -26 37 -39 37 -6 0 -11 17
-11 38 0 21 -5 43 -11 49 -6 6 -10 39 -10 73 0 60 -1 63 -45 105 -30 30 -44
51 -44 70 l0 26 34 -35 c34 -36 59 -40 70 -10 3 8 12 14 21 14 22 0 22 118 0
126 -8 4 -15 13 -15 20 0 8 -7 17 -15 20 -8 4 -15 15 -15 25 0 10 -4 19 -10
19 -5 0 -10 7 -10 16 0 10 -6 14 -15 11 -21 -9 -28 10 -12 34 15 20 15 20 35
-5 25 -32 43 -33 41 -3 -4 41 1 56 20 62 11 3 23 16 27 28 7 21 7 21 16 -5 5
-16 16 -28 23 -28z m-1065 30 c8 -5 11 -12 8 -16 -4 -3 -14 1 -23 10 -18 17
-9 21 15 6z m-2318 -994 c17 -3 34 -3 39 0 5 3 9 0 9 -5 0 -6 7 -11 16 -11 9
0 21 -13 27 -30 6 -16 17 -30 23 -30 15 0 24 -33 24 -90 1 -59 17 -129 38
-160 9 -14 18 -43 20 -65 2 -22 10 -44 18 -48 8 -4 14 -19 14 -33 0 -13 11
-46 24 -73 15 -32 19 -48 10 -44 -7 3 -16 14 -20 26 -4 12 -17 29 -29 39 -13
10 -33 43 -46 73 -12 30 -26 55 -31 55 -4 0 -8 7 -8 15 0 8 -4 15 -10 15 -5 0
-10 9 -10 19 0 10 -7 21 -15 25 -8 3 -15 15 -15 26 0 11 -9 29 -20 40 -11 11
-20 31 -20 44 0 14 -7 31 -15 40 -8 8 -15 26 -15 40 0 14 -4 26 -9 26 -5 0
-12 19 -16 43 -4 23 -11 44 -15 47 -4 3 -10 19 -13 35 -6 26 -5 27 4 9 6 -12
25 -25 41 -28z m1585 -1272 c-3 -3 -12 -4 -19 -1 -8 3 -5 6 6 6 11 1 17 -2 13
-5z"/>
<path d="M1703 3683 c-8 -3 -13 -23 -13 -49 0 -42 1 -44 29 -44 16 0 36 7 45
15 8 8 26 15 40 15 23 0 26 4 26 33 l0 33 -57 1 c-32 1 -64 -1 -70 -4z"/>
<path d="M1863 3534 c-25 -28 -30 -64 -10 -64 18 0 43 28 56 63 9 23 8 27 -7
27 -9 0 -27 -12 -39 -26z"/>
<path d="M1778 3442 c-25 -15 -27 -21 -22 -52 8 -44 12 -50 31 -50 30 0 63 43
63 83 0 32 -3 37 -22 36 -13 0 -35 -8 -50 -17z"/>
<path d="M2783 1963 c-7 -2 -13 -11 -13 -19 0 -8 -8 -14 -17 -14 -24 0 -59
-79 -72 -160 -10 -59 -9 -64 11 -82 12 -10 26 -18 33 -18 16 0 45 33 45 51 0
9 7 24 15 35 8 10 15 30 15 44 0 14 7 34 15 44 15 20 20 81 9 110 -6 16 -18
19 -41 9z"/>
<path d="M1132 1179 c-32 -12 -25 -43 11 -47 15 -2 27 1 27 7 0 6 7 11 15 11
20 0 19 26 -1 34 -19 7 -23 7 -52 -5z"/>
<path d="M2410 3061 c0 -22 13 -41 29 -41 17 0 44 34 34 44 -10 10 -63 7 -63
-3z"/>
<path d="M2330 3035 c0 -8 7 -15 15 -15 8 0 15 7 15 15 0 8 -7 15 -15 15 -8 0
-15 -7 -15 -15z"/>
</g>
</svg>
